<svg width="24" height="24" viewBox="0 0 24 24" fill="none" xmlns="http://www.w3.org/2000/svg">
<g clip-path="url(#clip0)">
<path d="M7.17201 20.655C6.25801 19.935 5.28201 19.245 4.61601 18.275C3.21401 16.563 2.13401 14.581 1.39601 12.498C0.950012 11.143 0.796012 9.68999 0.222012 8.38799C-0.379988 7.44399 0.325012 6.40999 1.36001 6.10899C1.82001 6.02099 2.63201 5.58599 1.65301 5.89699C0.775012 6.54099 0.690012 5.31199 1.59001 5.23499C2.20501 5.15299 2.43001 4.64999 2.22001 4.19799C1.56101 3.76799 3.82001 3.29499 2.68301 2.65399C1.50101 1.37599 4.34001 1.12999 3.64001 2.57999C3.47301 3.69499 5.62401 2.37599 5.12501 3.66299C5.63201 4.28199 7.02501 3.80399 6.99001 4.67199C7.73001 4.72199 7.98301 5.34399 8.67701 5.39199C9.39701 5.71699 10.7 5.97199 10.944 6.78299C10.231 7.34799 8.57901 5.61699 8.50001 7.17999C8.71501 9.48999 8.66001 11.869 9.50501 14.068C9.90501 15.4 10.874 16.448 11.749 17.486C12.586 18.502 13.72 19.216 14.876 19.819C15.89 20.297 16.983 20.614 18.089 20.813C18.537 20.47 19.329 19.196 20.027 19.733C20.06 20.337 18.639 20.996 19.96 20.929C20.736 20.695 21.274 21.529 21.913 20.777C22.501 21.474 24.359 20.331 23.94 21.757C23.374 22.121 22.548 21.901 21.981 22.403C21.046 21.936 20.301 22.821 19.266 22.709C18.116 22.915 16.947 22.999 15.782 23C13.87 22.849 11.917 22.785 10.098 22.12C9.07301 21.822 8.07401 21.238 7.17301 20.655H7.17201ZM8.78701 21.355C9.78701 21.787 10.766 22.243 11.862 22.381C13.602 22.622 15.399 22.995 17.145 22.655C16.355 22.298 15.537 22.795 14.75 22.4C13.806 22.603 12.793 22.348 11.833 22.223C10.741 21.737 9.56301 21.403 8.54101 20.771C7.26401 20.305 9.20101 21.369 9.54701 21.456C10.345 21.909 8.66901 21.223 8.43201 21.035C7.76401 20.66 7.67801 20.738 8.36601 21.119C8.50501 21.2 8.64201 21.285 8.78601 21.354L8.78701 21.355ZM6.88301 20.009C7.85301 20.368 6.87901 19.327 6.43401 19.387C6.23701 19.046 5.68201 18.83 6.07401 18.647C5.36901 18.891 5.33601 17.717 5.00401 17.884C4.25901 17.649 4.71401 16.815 3.82701 16.304C3.74601 15.764 2.94501 15.296 2.68901 14.482C2.57601 14.066 1.78401 12.869 2.27101 13.982C2.68501 15.054 3.41401 15.972 4.02101 16.889C4.49101 17.762 5.04801 18.675 5.90601 19.219C6.19601 19.497 6.47401 19.922 6.88301 20.009ZM4.09001 16.942C4.12301 16.796 4.26701 17.259 4.09001 16.942V16.942ZM8.04401 20.439C8.25901 20.343 7.73501 20.319 8.04401 20.439V20.439ZM8.57001 20.631C8.51601 20.366 8.33001 20.779 8.57001 20.631V20.631ZM9.23001 20.906C9.54301 20.607 8.74601 20.718 9.23001 20.906V20.906ZM10.358 21.536C10.549 21.254 9.74801 21.429 10.358 21.536V21.536ZM8.19001 20.023C8.67701 19.708 7.56001 20.019 8.19001 20.023V20.023ZM8.68401 20.269C8.67001 20.103 8.50801 20.344 8.68401 20.269V20.269ZM11.154 21.811C11.552 22.061 13.474 22.361 12.27 21.914C12.069 21.956 10.039 21.34 11.154 21.811ZM7.23301 18.757C7.19401 18.59 6.61701 18.572 7.23301 18.757V18.757ZM8.38301 19.427C8.68301 19.218 7.76201 19.267 8.38301 19.427V19.427ZM9.35001 20.02C9.78001 19.858 8.65301 19.857 9.35001 20.02V20.02ZM6.76501 18.247C7.23101 18.605 8.64501 18.293 7.47901 18.034C6.94901 17.751 5.75201 17.558 6.56701 18.204L6.76501 18.247ZM10.005 20.225C10.199 19.895 9.19101 20.036 10.005 20.225V20.225ZM9.02101 19.442C10.161 19.765 8.06301 18.722 8.74001 19.324L8.89001 19.392L9.02001 19.442H9.02101ZM10.995 20.583C12.074 20.593 10.02 20.435 10.995 20.583V20.583ZM6.35001 17.623C6.30801 17.422 6.08401 17.64 6.35001 17.623V17.623ZM12.82 21.607C12.849 21.244 12.468 21.877 12.82 21.607V21.607ZM8.19101 18.751C8.12601 18.56 7.85401 18.743 8.19101 18.751V18.751ZM6.45201 17.497C7.07201 17.46 5.60401 17.224 6.45201 17.497V17.497ZM4.39201 16.165C4.31501 15.868 3.71801 15.631 4.39201 16.165V16.165ZM9.80001 19.6C9.68601 19.47 9.74601 19.628 9.80001 19.6V19.6ZM13.166 21.665C13.156 21.468 12.983 21.74 13.166 21.665V21.665ZM9.50201 19.292C9.56201 19.037 8.97301 19.215 9.50201 19.292V19.292ZM6.99501 17.7C7.45501 17.651 6.25601 17.389 6.99501 17.7V17.7ZM11.237 20.337C11.955 20.052 10.537 20.197 11.237 20.337V20.337ZM9.03001 18.84C9.85801 18.946 8.04501 18.277 8.84901 18.78L9.03001 18.84ZM11.907 20.608C12.68 20.146 12.425 21.69 13.218 20.738C14 20.168 12.543 21.445 13.507 20.841C14.204 20.374 15.234 21.061 15.884 21.286C16.352 21.263 16.807 21.691 17.287 21.431C18.21 21.181 15.481 21.061 16.197 20.621C15.352 20.866 14.727 20.327 14.312 19.786C13.364 19.567 12.268 19.083 11.795 18.244C11.603 17.929 12.074 18.288 11.629 17.774C11.058 17.266 10.773 16.689 10.389 16.072C9.93201 15.828 9.87901 15.109 9.83201 16.048C9.83601 15.455 9.27901 15.056 9.14301 15.222C9.14101 14.651 9.73901 14.937 9.32001 14.515C9.23001 13.923 8.93301 13.306 8.84401 12.638C8.70601 12.316 8.82401 11.627 8.37101 12.356C8.20601 13.126 8.31601 11.409 8.57301 11.976C8.91001 11.397 8.45301 11.466 8.43301 11.546C8.65301 11.058 8.57301 10.366 8.37601 10.63C8.49301 10.113 8.56101 8.72799 8.20101 8.97399C8.41901 8.43399 8.61501 6.50099 7.66701 7.23799C7.28301 7.24299 6.61901 7.37799 6.30401 7.53399C7.29001 8.07699 6.20501 7.72999 5.80401 7.64399C5.75201 8.14599 5.35401 7.92899 4.85801 7.93399C5.65101 8.03199 4.47201 8.74399 4.01701 8.46799C3.42701 8.74999 4.52701 9.45499 4.02901 9.67299C4.09001 10.001 3.12401 9.55399 3.19901 10.313C2.62601 10.072 3.12101 11.213 3.40801 10.827C4.38301 11.091 4.09401 11.693 4.11901 12.264C3.96001 12.597 3.33401 11.481 3.97901 11.533C3.47101 10.706 3.41701 11.234 2.99401 11.618C2.89501 11.646 4.07301 12.165 3.33401 12.421C3.98401 12.521 4.00201 13.091 4.13401 13.451C4.52501 13.858 4.44501 13.001 4.91301 13.491C4.61701 13.055 3.34601 12.263 4.36901 12.517C4.36401 12.078 4.18401 11.724 4.49801 11.733C4.80801 11.171 4.17301 13.12 4.87301 12.405C5.06601 12.32 5.11401 11.842 5.46301 12.45C5.96801 12.948 5.64501 13.308 4.93201 12.853C5.05901 13.286 5.88601 13.44 5.73101 14.118C5.89601 14.713 6.12601 14.494 6.32701 14.46C6.48501 15.038 6.57401 14.613 6.58201 14.337C7.30301 14.492 7.13401 14.918 7.36001 15.217C7.85701 15.441 6.64801 13.695 7.50201 14.691C8.40001 15.502 7.83901 15.841 7.03201 15.711C7.54201 15.67 7.70701 16.401 8.34501 16.375C8.92701 16.652 9.32101 17.715 8.31801 17.272C7.97001 16.959 6.73901 16.572 7.74501 17.168C8.67401 17.598 9.41101 17.856 10.307 18.395C10.947 18.853 11.225 19.377 11.467 19.481C10.929 19.738 9.84401 19.275 10.65 19.133C10.147 19.042 9.58201 18.788 10.063 19.413C10.473 19.756 11.513 19.719 11.7 19.758C11.541 20.106 11.27 20.134 11.706 20.161C11.22 20.421 11.862 20.461 11.907 20.609V20.608ZM10.913 17.8C10.617 17.49 10.54 16.91 10.86 17.415C11.024 17.481 11.385 18.362 10.913 17.8ZM14.151 19.857C14.336 19.846 14.157 19.997 14.151 19.857V19.857ZM10.445 17.041C10.434 16.573 10.552 17.402 10.445 17.041V17.041ZM10.123 16.608C9.75101 15.889 10.593 16.812 10.123 16.608V16.608ZM6.22301 13.916C6.44101 13.857 6.33001 14.29 6.22301 13.916V13.916ZM9.32701 15.598C9.46101 15.094 9.48501 16.022 9.32701 15.598V15.598ZM7.13401 14.073C6.97901 13.795 7.45701 14.334 7.13401 14.073V14.073ZM9.01601 14.677C8.66401 13.887 9.26601 14.245 9.09401 14.807L9.01601 14.677ZM5.77001 12.512C5.61201 12.252 5.35201 11.492 5.43601 11.26C5.51201 11.638 6.24001 12.887 5.79301 11.778C5.29901 10.848 6.38301 12.08 6.49501 12.312C6.54601 12.542 6.19001 12.249 6.43101 12.79C5.99101 12.173 6.17101 13.13 5.77001 12.512ZM4.76701 11.821C4.80801 11.218 4.99701 12.234 4.76701 11.821V11.821ZM5.21801 11.976C5.43301 11.521 5.58301 12.61 5.21801 11.976V11.976ZM4.13301 11.136C3.75901 10.766 3.48901 10.423 4.15001 10.906C4.40501 10.916 3.58401 10.128 4.21101 10.656C4.87101 10.776 4.53701 11.738 4.13301 11.136ZM4.70301 11.121C4.92001 10.906 4.81801 11.333 4.70301 11.121V11.121ZM5.05301 11.234C4.72501 10.617 5.45301 11.492 5.05301 11.234V11.234ZM4.35601 10.567C3.27001 9.60099 5.72101 11.073 4.53301 10.747L4.35601 10.567ZM7.46701 12.375C6.99701 12.093 7.34301 10.391 7.50301 11.555C7.96001 11.407 7.47801 12.156 7.81801 12.149C7.76501 12.622 7.61201 12.792 7.46801 12.375H7.46701ZM8.61701 13.055C8.66401 12.542 8.71501 13.405 8.61701 13.055V13.055ZM8.41701 12.857C8.47001 12.638 8.42301 13.115 8.41701 12.857V12.857ZM4.57001 10.25C3.87301 9.28699 6.59701 11.223 5.01701 10.494C4.85201 10.451 4.65301 10.435 4.57001 10.25ZM6.78601 11.425C6.72001 10.615 6.93301 11.559 6.78601 11.425V11.425ZM8.46801 12.504C8.59801 12.042 8.47801 12.809 8.46801 12.504V12.504ZM4.67601 9.88199C5.09101 9.79399 6.39401 10.611 5.19701 10.116C5.06401 9.96799 4.78001 10.036 4.67601 9.88199ZM8.23601 11.657C8.28001 10.828 8.48401 11.162 8.23801 11.775L8.23601 11.657ZM4.98501 9.59399C5.15401 9.34599 4.53601 8.47399 5.07401 9.28099C5.30601 9.46599 5.74601 9.59099 5.35701 9.66799C5.96801 10.207 5.20801 9.81399 4.98501 9.59399V9.59399ZM8.06001 11.398C8.17701 10.454 8.16301 11.951 8.06001 11.398V11.398ZM4.63201 8.72199C4.76101 8.66699 4.70001 8.89399 4.63201 8.72199V8.72199ZM5.43401 9.19999C5.64001 8.76599 5.81401 9.68299 5.43401 9.19999V9.19999ZM7.69701 10.459C7.69501 10.292 7.74001 10.701 7.69701 10.459V10.459ZM7.56601 10.169C7.25201 9.39299 7.85801 10.579 7.56601 10.169V10.169ZM7.37301 9.65999C7.32001 9.33999 7.55301 10.063 7.37301 9.65999V9.65999ZM7.68701 9.14999C7.47101 8.76999 7.95901 7.47599 8.01301 8.27899C7.78601 8.90399 7.94801 9.25399 8.10601 8.41499C8.39901 7.75499 8.04301 9.71799 7.68601 9.14999H7.68701ZM8.00901 7.22599C8.10301 7.11099 8.03001 7.36499 8.00901 7.22599V7.22599ZM7.47101 17.839C7.34301 17.728 7.48701 17.91 7.47101 17.839V17.839ZM8.58101 18.4C9.19701 18.559 9.19401 18.304 8.63601 18.229C8.33601 17.949 7.39001 17.654 8.23701 18.194C8.29301 18.336 8.47101 18.333 8.58001 18.4H8.58101ZM6.38901 16.945C6.72901 17.198 7.66901 17.664 6.87301 17.041C7.14201 16.729 6.35901 16.563 6.61901 16.355C5.95901 15.951 6.09901 15.987 6.56101 15.999C5.76701 15.645 6.67501 15.671 6.63201 15.489C6.32601 15.429 5.11201 14.95 5.82701 15.529C5.10101 15.159 5.65401 15.667 5.43501 15.613C4.69201 15.411 6.09501 16.178 5.31701 15.988C5.74201 16.325 6.46301 16.852 5.49701 16.345C5.36901 16.528 6.18801 16.805 6.38901 16.945ZM7.54901 17.612C8.96001 18.066 6.85801 17.056 7.54901 17.612V17.612ZM13.489 21.21C13.509 20.93 13.297 21.45 13.489 21.21V21.21ZM14.101 21.467C14.426 21.152 14.114 21.97 14.64 21.39C14.646 20.975 14.624 20.73 14.035 21.234C13.873 21.324 13.801 21.707 14.101 21.467ZM4.40801 15.38C4.30801 14.987 3.70801 14.99 4.40801 15.38V15.38ZM5.06001 15.808C4.81801 15.406 4.19601 15.444 5.06001 15.808V15.808ZM8.77001 18.045C9.13201 18.366 10.433 18.281 9.21001 18.085C9.02801 17.816 8.05901 17.881 8.77001 18.045ZM13.868 21.194C14.426 20.726 13.328 21.402 13.868 21.194V21.194ZM15.028 21.99C15.031 21.84 14.788 22.056 15.028 21.99V21.99ZM15.029 21.78C15.646 21.126 14.431 21.819 15.029 21.78V21.78ZM2.80501 14.038C2.27901 13.288 2.47801 12.95 1.97001 12.338C1.87401 11.868 1.10001 10.805 1.57001 11.932C2.00001 12.591 2.12801 13.611 2.80501 14.038V14.038ZM14.835 21.572C15.971 20.838 14.37 21.252 14.835 21.572V21.572ZM15.702 21.912C16.272 21.424 15.342 21.81 15.702 21.912V21.912ZM4.21501 14.55C4.37801 14.308 3.79501 14.519 4.21501 14.55V14.55ZM15.521 21.679C16.072 21.324 15.395 21.379 15.421 21.711L15.521 21.679ZM8.05001 16.97C8.03001 16.73 7.75901 16.99 8.05001 16.97V16.97ZM8.51101 17.236C8.36501 16.939 8.28601 17.283 8.51101 17.236V17.236ZM16.405 21.92C17.11 21.41 15.977 21.822 16.257 22.016L16.405 21.92ZM16.135 21.79C16.709 21.308 15.528 22.003 16.135 21.79V21.79ZM17.515 22.708C17.901 22.45 17.046 22.625 17.515 22.708V22.708ZM4.56901 14.376C5.08601 14.492 6.63501 15.65 5.72101 14.456C5.25301 14.318 5.53401 13.173 5.05601 13.376C5.37601 13.911 5.32001 14.139 4.64701 13.802C3.80101 13.389 4.17201 14.006 4.33701 14.176C4.11201 14.228 4.63501 14.372 4.56901 14.376V14.376ZM2.21301 12.516C2.30501 12.133 1.36001 10.409 1.76701 11.652C1.91301 11.912 1.89801 12.406 2.21301 12.516ZM6.53701 15.182C6.27101 14.959 6.52401 15.15 6.53701 15.182V15.182ZM7.19301 15.334C7.19301 14.929 6.46801 15.17 7.19301 15.334V15.334ZM12.875 18.917C12.767 18.639 12.447 18.911 12.875 18.917V18.917ZM13.148 19.116C13.108 18.961 12.991 19.146 13.148 19.116V19.116ZM15.401 20.535C15.617 20.375 15.131 20.515 15.401 20.535V20.535ZM3.39001 12.816C4.01001 12.576 2.72601 12.645 3.39001 12.816V12.816ZM12.375 18.477C12.368 18.076 11.98 18.577 12.375 18.477V18.477ZM3.14501 12.246C3.54301 12.111 2.77701 12.157 3.14501 12.246V12.246ZM4.30001 12.806C4.29301 12.673 4.17801 12.856 4.30001 12.806V12.806ZM18.39 21.446C18.903 21.342 20.069 21.706 20.257 21.31C19.636 21.295 18.107 20.872 18.035 21.411L18.171 21.433L18.391 21.446H18.39ZM4.66801 12.898C4.67701 12.491 4.35101 12.883 4.66801 12.898V12.898ZM1.63001 10.79C1.49201 10.015 1.10501 10.672 1.63001 10.79V10.79ZM2.35401 10.972C2.36301 10.723 1.69101 10.748 2.35401 10.972V10.972ZM2.76801 11.175C2.64801 11.078 2.67401 11.297 2.76801 11.175V11.175ZM5.37301 12.845C5.49501 12.733 5.08301 12.762 5.37301 12.845V12.845ZM2.49301 10.717C2.42301 10.132 1.65301 10.629 2.49301 10.717V10.717ZM1.00701 9.75299C0.987012 9.48299 0.863012 9.85499 1.00701 9.75299V9.75299ZM1.22801 9.58599C1.19201 9.26599 1.03801 9.62599 1.22801 9.58599V9.58599ZM2.44801 10.315C2.96501 10.112 1.50801 9.89499 2.34301 10.276L2.44801 10.315ZM18.782 20.404C19.112 20.101 18.362 20.31 18.782 20.404V20.404ZM20.756 21.427C20.888 21.035 20.422 21.478 20.756 21.427V21.427ZM2.57301 9.67599C2.62801 9.29699 2.16401 9.75099 2.57301 9.67599V9.67599ZM0.837012 8.51299C0.744012 7.97799 0.757012 7.03899 1.64901 7.35699C0.458012 7.59299 2.47301 8.83699 2.21901 7.85499C2.71901 7.87899 3.19901 7.55899 2.93501 8.04499C3.92201 7.93599 4.60601 7.08099 5.55901 7.19999C6.30101 7.10199 7.11301 7.02799 7.91301 6.72899C8.57101 6.68099 9.20401 5.97299 8.84301 5.55399C7.94701 5.47799 7.00801 5.58999 6.01601 5.78699C4.91801 6.01499 3.92001 6.44899 2.81101 6.63599C1.73101 6.78099 3.02801 7.03599 2.71901 7.09199C2.15501 7.28799 3.39101 7.41999 2.64601 7.62599C2.18601 7.53799 1.70601 7.37999 1.90301 6.89599C0.868012 7.02899 -0.0419881 7.45899 0.776012 8.51199H0.837012V8.51299ZM3.33101 7.24299C3.57401 6.34899 4.63101 7.97799 3.72901 7.36099C3.62101 7.28099 3.44401 7.21499 3.33101 7.24199V7.24299ZM3.37801 6.80899C3.72801 6.54899 3.56401 6.95499 3.37801 6.80899V6.80899ZM3.82301 6.81699C3.85501 6.40599 4.84101 7.03499 3.98601 6.96499L3.82301 6.81699ZM4.43101 6.57199C4.65301 6.31199 4.49501 6.80299 4.43101 6.57199V6.57199ZM4.58701 6.46799C4.95701 6.02399 6.68201 6.18499 5.41901 6.42499C5.08101 6.16999 4.82101 6.57499 4.58701 6.46799ZM6.83801 6.12099C6.78201 4.90699 7.95601 6.55299 6.83801 6.12099V6.12099ZM7.47701 6.11699C7.71001 5.50499 8.38301 5.87199 7.58501 5.99399C7.60201 6.05899 7.56101 6.30999 7.47701 6.11699ZM2.32201 9.36199C3.01901 8.93499 1.58101 8.99199 2.32201 9.36199V9.36199ZM2.83701 9.50599C3.08201 9.24599 2.30601 9.39999 2.83701 9.50599V9.50599ZM1.31701 8.42599C1.71601 8.12099 0.846012 8.30999 1.31701 8.42599V8.42599ZM21.92 21.316C21.932 20.961 21.616 21.476 21.92 21.316V21.316ZM19.827 19.887C19.887 19.478 19.557 19.923 19.827 19.887V19.887ZM22.497 21.454C23.054 21.454 24.185 21.281 22.972 21.281C22.782 21.311 21.863 21.305 22.496 21.454H22.497ZM3.29001 9.25399C3.74101 9.22399 3.99601 8.75699 3.20301 8.78399C1.97301 8.65699 4.28701 9.20399 3.04501 9.04799C2.87801 9.15799 3.28101 9.28499 3.29001 9.25499V9.25399ZM3.68801 9.45599C3.64001 9.16599 3.54801 9.60999 3.68801 9.45599V9.45599ZM4.15801 8.19899C4.35501 7.95599 3.88801 8.13399 4.15801 8.19899V8.19899ZM2.65801 5.69099C3.46401 5.41699 4.56501 5.10999 4.94501 5.82599C4.55801 5.35999 4.78901 4.90199 5.15501 5.58299C5.67101 6.27199 5.93001 5.26999 5.59301 5.03799C5.97601 5.51399 6.41201 5.73899 5.85001 5.06799C6.46001 4.33399 4.62701 5.16499 4.21001 5.15599C4.01001 5.24599 2.13901 5.63299 2.65901 5.69099H2.65801ZM3.13001 4.78799C3.59001 4.44099 4.71801 4.99399 3.99401 4.44299C3.92401 4.38099 2.40801 4.86099 3.13001 4.78799ZM4.80401 4.85699C5.34201 4.86999 4.57301 4.13499 5.21301 4.46799C5.10801 4.12399 4.46701 4.05999 4.15401 3.92299C3.97701 4.23699 4.51401 4.86099 4.80401 4.85699ZM3.42401 3.33699C3.61001 3.08499 3.09801 3.46499 3.42401 3.33699V3.33699ZM4.10801 3.50099C4.97401 3.38599 3.88801 3.12799 3.93401 3.49099L4.10801 3.50099ZM2.83101 2.50099C2.22101 1.70499 3.97701 2.63499 3.35801 1.80099C2.83601 1.38599 2.33501 2.26899 2.83101 2.50099ZM10.656 6.71599C10.936 6.21999 9.50101 6.04799 10.468 6.54099C10.557 6.57099 10.537 6.75099 10.656 6.71599Z" fill="#FFFDFD"/>
</g>
<defs>
<clipPath id="clip0">
<rect width="24" height="24" fill="white"/>
</clipPath>
</defs>
</svg>
