<svg width="640" height="512" viewBox="0 0 640 512" fill="none" xmlns="http://www.w3.org/2000/svg">
<path d="M384 320H256C238.33 320 224 334.33 224 352V480C224 497.67 238.33 512 256 512H384C401.67 512 416 497.67 416 480V352C416 334.33 401.67 320 384 320ZM192 32C192 14.33 177.67 0 160 0H32C14.33 0 0 14.33 0 32V160C0 177.67 14.33 192 32 192H127.72L200.88 320.04C211.98 300.98 232.4 288 256 288H256.28L192 175.51V128H416V64H192V32ZM608 0H480C462.33 0 448 14.33 448 32V160C448 177.67 462.33 192 480 192H608C625.67 192 640 177.67 640 160V32C640 14.33 625.67 0 608 0Z" fill="#88B9D7"/>
</svg>
